<?xml version="1.0" encoding="UTF-8" standalone="no"?>
<!-- Created with Inkscape (http://www.inkscape.org/) -->

<svg
   xmlns:dc="http://purl.org/dc/elements/1.1/"
   xmlns:cc="http://creativecommons.org/ns#"
   xmlns:rdf="http://www.w3.org/1999/02/22-rdf-syntax-ns#"
   xmlns:svg="http://www.w3.org/2000/svg"
   xmlns="http://www.w3.org/2000/svg"
   xmlns:xlink="http://www.w3.org/1999/xlink"
   xmlns:sodipodi="http://sodipodi.sourceforge.net/DTD/sodipodi-0.dtd"
   xmlns:inkscape="http://www.inkscape.org/namespaces/inkscape"
   width="744.09448819"
   height="1052.3622047"
   id="svg2"
   version="1.1"
   inkscape:version="0.48.4 r9939"
   sodipodi:docname="frog.svg">
  <defs
     id="defs4" />
  <sodipodi:namedview
     id="base"
     pagecolor="#ffffff"
     bordercolor="#666666"
     borderopacity="1.0"
     inkscape:pageopacity="0.0"
     inkscape:pageshadow="2"
     inkscape:zoom="1.642104"
     inkscape:cx="472.78277"
     inkscape:cy="748.87676"
     inkscape:document-units="px"
     inkscape:current-layer="layer1"
     showgrid="false"
     inkscape:window-width="1024"
     inkscape:window-height="575"
     inkscape:window-x="-4"
     inkscape:window-y="-4"
     inkscape:window-maximized="1" />
  <metadata
     id="metadata7">
    <rdf:RDF>
      <cc:Work
         rdf:about="">
        <dc:format>image/svg+xml</dc:format>
        <dc:type
           rdf:resource="http://purl.org/dc/dcmitype/StillImage" />
        <dc:title />
      </cc:Work>
    </rdf:RDF>
  </metadata>
  <g
     inkscape:label="Layer 1"
     inkscape:groupmode="layer"
     id="layer1">
    <image
       sodipodi:absref="C:\Users\revlin\Projects\Currents\media\frog.png"
       xlink:href="frog.png"
       width="714.75"
       height="542.53571"
       id="image2993"
       x="18.339304"
       y="163.95146" />
    <path
       style="fill:#00ffff;stroke:#000000;stroke-width:1px;stroke-linecap:butt;stroke-linejoin:miter;stroke-opacity:1"
       d="m 305.08735,172.41017 -41.55389,-4.52141 -42.1998,0 -21.53051,2.58366 -28.42028,9.47343 -34.44882,16.36318 -18.08563,12.05709 -16.36318,14.64075 -15.501972,16.36319 -10.441305,23.20236 c 0,0 65.349177,4.21223 86.663297,2.99428 21.31412,-1.21795 35.32054,-0.60898 49.32696,-1.82693 14.00642,-1.21795 27.40386,-1.21795 32.27566,-2.4359 15.33787,-3.83445 8.52565,-6.69873 8.52565,-6.69873 l 1.82693,-7.30769 c 0,0 -1.21795,-2.4359 5.48077,-6.69872 6.69872,-4.26283 9.13462,-7.91668 9.13462,-7.91668 0,0 6.69872,-5.48076 9.13462,-6.69871 2.4359,-1.21795 6.08975,-6.08975 12.1795,-7.91668 l 6.08975,-9.7436 4.26282,-9.13462 3.04488,-4.26283 10.96154,-6.08974 15.46368,-6.48724 z m -121.21678,364.08095 46.0753,42.1998 40.47736,35.31004 26.26722,22.39173 31.43455,21.96113 19.59277,10.98056 24.11417,9.90403 9.25812,2.15306 15.28666,-2.36836 22.82235,-6.45915 32.72637,-12.703 38.53962,-17.65503 19.59276,-12.05709 26.48253,-16.14788 0,0 -5.16732,-5.16732 1.72244,-6.88976 5.16732,-2.58367 6.88977,-1.72244 4.3061,-0.86122 8.36229,-3.58139 23.75002,-15.83335 4.26282,-6.08975 -1.82692,-3.04487 -6.69873,0 -11.57052,5.48077 -2.4359,1.21795 -14.00642,5.48078 -14.61539,6.08974 -5.48078,3.65385 -7.3077,4.8718 -10.96154,0 -4.26283,-2.4359 -0.60897,-7.3077 3.65385,-4.26282 11.57052,-0.60897 17.66027,-6.69873 24.96797,-10.35257 9.13462,-6.69872 2.4359,-4.26283 -2.4359,-2.4359 -5.48077,-1.21795 -20.70515,-1.21795 -12.17949,1.21795 -4.8718,0 -7.3077,1.82693 -6.69872,0.60897 -5.48078,-1.21795 -2.4359,-1.21795 -1.82692,-4.26282 2.4359,-3.65385 4.8718,-3.04487 6.08974,0 12.1795,0.60897 12.78847,0 14.00642,0 25.57695,-4.26282 4.8718,-3.04488 0,-7.91667 -2.4359,-6.08975 -9.13463,-7.3077 -12.78847,-6.69872 -4.26282,-1.21795 -4.26283,0.60898 -7.30769,-3.65385 -3.04488,-3.65385 -2.4359,-6.08975 2.4359,-2.4359 9.13462,-0.60897 9.13463,3.65384 5.48077,3.65385 12.78847,4.8718 7.3077,3.65385 14.00642,3.04488 4.26283,0.60897 1.21795,-8.52565 0,-14.00642 -1.21795,-12.17949 -2.4359,-16.44233 -1.21795,-18.87822 -1.21795,-11.57052 -1.82693,-11.57052 -4.8718,4.26282 -10.96154,15.83335 -14.6154,15.83335 -6.08975,6.69872 -6.08975,6.69872 -6.08974,3.65385 -12.1795,6.08975 -12.78847,1.82692 -19.4872,0.60898 -15.22437,2.4359 -14.00642,1.82692 -10.35257,-1.21795 -7.91667,-1.21795 -2.4359,-2.4359 -28.62182,4.26283 -16.44232,2.4359 -18.26925,6.08975 -12.17949,4.87179 -1.21795,1.21795 -4.26283,1.21795 -3.04487,1.21795 -8.52565,0 -2.4359,-2.4359 -1.82692,-3.65384 1.21795,-4.8718 3.04487,-1.21795 9.7436,-1.21795 11.57052,-3.04488 10.35257,-4.26282 8.52565,-3.65385 7.3077,-4.8718 3.04487,-3.65385 -0.60897,-1.82692 -5.48078,-3.04488 -13.39744,-1.21795 -14.6154,0 -10.35257,0 -14.6154,0.60898 -10.35257,4.26282 -5.48077,0 -5.48078,-3.65385 -1.21795,-4.26282 3.65385,-6.69872 5.48078,-3.04488 7.3077,0.60898 5.48077,3.04487 7.91667,1.82693 12.1795,-0.60898 20.09617,-4.26282 7.91667,-3.04488 4.8718,-3.04487 2.4359,-1.82693 -0.60898,-3.04487 -1.82692,-1.21795 -6.69872,-4.8718 -3.65385,-3.04487 -10.96155,-9.13462 -8.52565,-5.48078 -6.08975,-2.4359 -5.48077,-4.8718 -2.4359,-4.26282 3.65385,-4.8718 4.8718,-0.60897 6.08975,1.82692 4.8718,5.48077 6.08974,5.48078 9.13463,5.48077 12.17949,7.3077 14.00642,8.52565 7.3077,-0.60898 7.91668,-2.4359 4.26282,-1.82692 0,-3.04488 -1.21795,-4.87179 -3.65385,-6.69873 -4.26282,-9.13462 -3.04488,-7.3077 -4.8718,-7.3077 -1.21795,-3.04487 3.04488,-4.26282 6.69872,0.60897 4.26283,3.65385 3.04487,7.91667 7.3077,10.35257 9.7436,11.57053 6.08974,7.91667 6.08975,4.8718 10.35257,5.48077 5.48078,0 13.39744,-4.8718 15.22437,-5.48077 5.48078,-2.4359 5.48077,-4.8718 4.8718,-7.3077 7.91667,-10.35257 0,-0.60897 1.21795,-6.08975 -5.48077,-8.52565 -12.78847,-7.3077 -13.39745,-6.69872 -18.26924,-3.04487 -17.66027,-2.4359 -10.35258,-3.04488 -20.70514,-9.13462 -16.44232,-7.91667 -23.75002,-1.21795 -14.00642,3.65385 -15.83335,0 -18.87822,-4.26283 -10.35257,-6.08975 -8.52565,-5.48077 -6.08974,-4.8718 -9.13463,-7.91667 -9.13462,-6.69872 -4.8718,-3.65385 -11.57052,-5.48078 -10.35257,-5.48077 -14.00642,-6.08975 -9.13463,-5.48077 -9.74359,4.8718 -17.0513,14.00642 c 0,0 -28.73264,19.63495 -39.38074,34.25669 -9.35626,10.96155 -34.30521,29.07669 -47.09369,61.96133 -12.78847,32.88464 -12.17949,48.10901 -11.57052,58.46159 0.60898,10.35257 1.51674,29.47153 1.51674,29.47153 z M 133.36549,365.43857 c 26.18592,-20.09617 81.60263,-68.20518 90.12827,-73.68596 8.52565,-5.48077 9.13463,-9.13462 9.13463,-9.13462 0,0 3.04487,-0.60897 2.4359,-5.48077 -0.60898,-4.8718 -2.4359,-2.4359 -7.3077,-4.26283 -4.8718,-1.82692 -36.53849,1.21795 -36.53849,1.21795 l -41.90844,2.79263 c -27.63146,1.84126 -52.512176,2.33454 -80.490703,8.88444 l -3.796811,13.88608 -0.430611,19.80807 4.306103,26.69784 7.750984,28.42027 8.612205,18.94685 9.354091,18.27134 c 0,0 12.564652,-26.26512 38.750572,-46.36129 z"
       id="path2983"
       inkscape:connector-curvature="0"
       sodipodi:nodetypes="ccccccccccccsssccscscccccsccccccccccccccccccccccccccccccccccccccccccccccccccccccccccccccccccccccccccccccccccccccccccccccccccccccccccccccccccccccccccccccccccccccccccccccccccccccccccccccccccccccccccccccccccccccccccccccccccccccccccccsssccsscsscccccccc" />
  </g>
</svg>
